<svg xmlns="http://www.w3.org/2000/svg" viewBox="0 0 24 24" role="img" aria-labelledby="title">
  <title>Category Folder</title>
  <defs>
    <linearGradient id="folderGrad" x1="0%" y1="0%" x2="100%" y2="100%">
      <stop offset="0%" stop-color="#f6d365" />
      <stop offset="100%" stop-color="#f0b85f" />
    </linearGradient>
  </defs>
  <path d="M3 6.8a2.3 2.3 0 0 1 2.3-2.3h4l1.7 1.8h7A2.3 2.3 0 0 1 20.3 8v9.2a2.3 2.3 0 0 1-2.3 2.3H5.3A2.3 2.3 0 0 1 3 17.2V6.8z" fill="url(#folderGrad)" />
  <path d="M3.7 9h16.6v8.2a1.6 1.6 0 0 1-1.6 1.6H5.3a1.6 1.6 0 0 1-1.6-1.6V9z" fill="#f7e2ad" opacity="0.6" />
  <path d="M3.7 8.9h16.6" stroke="#97642b" stroke-opacity="0.38" stroke-width="1.1" />
</svg>
